<?xml version="1.0" encoding="UTF-8"?>
<svg id="Lager_1" data-name="Lager 1" xmlns="http://www.w3.org/2000/svg" viewBox="0 0 240.98 242.36">
  <g>
    <path d="M179.93,238.7h8.22v-2.48c-2.67,.97-5.42,1.8-8.22,2.48Zm-38.66-20.66c-.65,1.01-1.33,1.98-2.02,2.93h2.61v-2.93h-.59Zm-60.53,22.93c4.44,.93,9.14,1.39,14.1,1.39s9.46-.46,13.77-1.39h-27.87Z"/>
    <path d="M179.93,238.7h8.22v-2.48c-2.67,.97-5.42,1.8-8.22,2.48Zm-99.19,2.27c4.44,.93,9.14,1.39,14.1,1.39s9.46-.46,13.77-1.39h-27.87Z"/>
  </g>
  <path d="M179.93,238.7h8.22v-2.48c-2.67,.97-5.42,1.8-8.22,2.48Zm-38.66-20.66c-.65,1.01-1.33,1.98-2.02,2.93h2.61v-2.93h-.59Zm-60.53,22.93c4.44,.93,9.14,1.39,14.1,1.39s9.46-.46,13.77-1.39h-27.87Z"/>
  <g>
    <path d="M22.99,179.67c-1.94-5.89-2.99-12.17-2.99-18.7V80c0-33.09,26.92-60,60-60h50.53V0h-50.53C35.89,0,0,35.88,0,80v80.97c0,32.01,18.9,59.68,46.11,72.46-1.41-1.38-2.78-2.84-4.11-4.38-10.82-12.53-17.19-29.1-19.01-49.38Z"/>
    <path d="M198.15,9.18c-1.73-.92-3.49-1.77-5.29-2.55-9.77-4.27-20.55-6.63-31.88-6.63h-19.12V105.84h-.59c-7.61-13.87-21.09-20.8-40.43-20.8-20.41,0-36.91,7.47-49.51,22.41-12.6,14.94-18.89,34.81-18.89,59.62,0,3.63,.13,7.13,.4,10.52,.8,10.07,2.77,19.05,5.94,26.94,2.72,6.8,6.31,12.79,10.79,17.98,8.41,9.73,18.8,15.89,31.17,18.46h27.87c12.63-2.7,22.84-9.37,30.64-20,.69-.95,1.37-1.92,2.02-2.93h.59v20.66h38.07c2.8-.68,5.55-1.51,8.22-2.48V26.51c3.55,1.81,6.9,3.97,10,6.42,13.9,11,22.83,28.01,22.83,47.07v80.97c0,19.06-8.93,36.07-22.83,47.07v23.75c25.44-13.4,42.83-40.12,42.83-70.82V80c0-30.71-17.39-57.43-42.83-70.82Zm-55.41,156.57c0,12.4-2.96,22.36-8.86,29.88-5.91,7.52-13.55,11.28-22.93,11.28-9.86,0-17.58-3.56-23.14-10.69-5.57-7.13-8.35-17.29-8.35-30.47,0-14.06,2.88-25.12,8.64-33.18,5.76-8.06,13.77-12.09,24.02-12.09,9.08,0,16.46,3.23,22.12,9.67,5.66,6.45,8.5,14.55,8.5,24.32v11.28Z"/>
  </g>
</svg>