<?xml version="1.0" encoding="UTF-8"?>
<svg id="Lager_1" data-name="Lager 1" xmlns="http://www.w3.org/2000/svg" viewBox="0 0 244.68 244.68">
  <path d="M159.68,0h-24.58V106.25h-.4c-5.18-9.43-14.34-14.14-27.49-14.14-13.88,0-25.1,5.08-33.67,15.24-8.56,10.16-12.85,23.67-12.85,40.54s3.89,28.7,11.66,37.7c7.77,9,18.03,13.5,30.78,13.5,13.87,0,24.4-5.51,31.57-16.54h.4v14.05h14.39c9.44,0,17.09-7.65,17.09-17.09V30.43c27.09,3.41,48.1,26.58,48.1,54.57v74.68c0,30.33-24.67,55-55,55H85c-30.33,0-55-24.67-55-55V85c0-30.33,24.67-55,55-55h37.34V0h-37.34C38.13,0,0,38.13,0,85v74.68c0,46.87,38.13,85,85,85h74.68c46.87,0,85-38.13,85-85V85C244.68,38.13,206.55,0,159.68,0Zm-23.98,146.99c0,8.44-2.01,15.21-6.03,20.32-4.02,5.12-9.21,7.67-15.59,7.67-6.7,0-11.95-2.42-15.73-7.27-3.79-4.84-5.68-11.75-5.68-20.72,0-9.56,1.96-17.08,5.87-22.56,3.92-5.48,9.37-8.22,16.34-8.22,6.18,0,11.19,2.2,15.04,6.58,3.85,4.38,5.78,9.89,5.78,16.53v7.67Z"/>
</svg>